PathFileType	4	(X/Y/Z)	52_1_30_p1_0-342_filt_butterworth.trc
DataRate	CameraRate	NumFrames	NumMarkers	Units	OrigDataRate	OrigDataStartFrame	OrigNumFrames
47.0	47.0	7	27	m	47.0	171	342
Frame#	Time	RHip			RKnee			RAnkle			RBigToe			RSmallToe			RHeel			LHip			LKnee			LAnkle			LBigToe			LSmallToe			LHeel			Neck			Head			Nose			RShoulder			RElbow			RWrist			RThumb			RIndex			RPinky			LShoulder			LElbow			LWrist			LThumb			LIndex			LPinky			
		X1	Y1	Z1	X2	Y2	Z2	X3	Y3	Z3	X4	Y4	Z4	X5	Y5	Z5	X6	Y6	Z6	X7	Y7	Z7	X8	Y8	Z8	X9	Y9	Z9	X10	Y10	Z10	X11	Y11	Z11	X12	Y12	Z12	X13	Y13	Z13	X14	Y14	Z14	X15	Y15	Z15	X16	Y16	Z16	X17	Y17	Z17	X18	Y18	Z18	X19	Y19	Z19	X20	Y20	Z20	X21	Y21	Z21	X22	Y22	Z22	X23	Y23	Z23	X24	Y24	Z24	X25	Y25	Z25	X26	Y26	Z26	X27	Y27	Z27	
171	3.638297872340425	0.2189234693457019	0.554279306666919	0.49711038323732215	0.12944075287345902	0.6557581121074898	0.9195236096803054	0.04180461374022579	0.7438297992485403	1.2607515824295827	0.0009661477224481127	0.5895711812017305	1.3044762695289482	0.06728470799587032	0.6040086279270664	1.3189149070505952	0.0026044997808292026	0.8702830180687088	1.324430483158723	0.012654411641262193	0.56753622939388	0.4567008934778537	-0.08096683692570802	0.6733613471232986	0.8673649701500667	-0.149023749101033	0.7689626171045008	1.2335710812354654	-0.14004884228401324	0.5965756394948262	1.2594171252470006	-0.19923693530258582	0.639990690158468	1.257707769653491	-0.14569243802222076	0.8246215648169128	1.28033262942141	0.25282082483051393	0.4102940831923783	-0.013257413099349765	0.30172416324451723	0.3197461448486698	-0.2486072402699283	0.2681481097862578	0.26576814294176815	-0.1022859140288464	0.3607385743323574	0.4230021296791395	0.10255835750145204	0.33158137507717167	0.47162070556083324	0.36727401350890077	0.18890375090849965	0.3887407776837915	0.5294357227333909	0.05999072958736944	0.39912792921637325	0.5950306397153533	0.052318478304648516	0.4440881679110266	0.6066690179795127	0.0772995272822097	0.44078447229398854	0.6430069094984664	0.081639212383658	0.4499304457748291	0.016286880439605272	-0.0014386246975723637	0.45228506635150467	0.28115553542126526	0.04517649675522489	0.4138973469418667	0.5034139960245443	0.08738720450846076	0.39900881912715525	0.597123095926911	0.08191066029683683	0.4016323081482893	0.6165535733614566	0.06265851860365809	0.43425629752609957	0.6212595182820383
172	3.6595744680851054	0.22003399559739173	0.5559836557704513	0.4974887926411805	0.13074453669635683	0.6558537119652765	0.9198084121333717	0.04166296605931609	0.7438733265993276	1.2607174093288038	0.0009880956812431273	0.5891881798664322	1.303540141194519	0.06744142164704142	0.6033455314160419	1.3168115206436606	0.0026743295783632	0.874755786196447	1.3243365035029124	0.012639120193046218	0.5676076365650373	0.45807660721285026	-0.08084874184053806	0.6733396542236517	0.8675982633652289	-0.14967462974749982	0.7693942287498985	1.2336086603237435	-0.14040169770975475	0.5973061557965119	1.2588095469222533	-0.19921486457595083	0.6398235564389441	1.2575724833214839	-0.14629819136605693	0.8247549112756616	1.282426206355787	0.25134575747423155	0.4139116687608182	-0.012709497973079242	0.30015460962553314	0.3152601864253148	-0.24748315423617862	0.2666704558816246	0.2690472141913534	-0.10283777833351607	0.3595778511610985	0.4226420859532413	0.1023936383817993	0.33026018761425346	0.47565860317714287	0.36818611748447	0.18870871339875	0.3887940743344642	0.5292604714805231	0.06041524417817658	0.39905099809106437	0.5955775746035286	0.053021133517505654	0.43874328063801193	0.605561064833544	0.07761564765946054	0.43996314660778857	0.6427088319586617	0.0805515591206698	0.44569076725235723	0.018109210044864467	-0.001448992797267614	0.45230295738992327	0.28130195181798456	0.043680866039699	0.4133008035281413	0.5028300059007818	0.08594485605741943	0.39824638411438634	0.5966558014829524	0.0818969943089083	0.40093637013395855	0.6162946297787565	0.0648313897067504	0.4333891728736389	0.6216177035470717
173	3.6808510638297873	0.22003350054835452	0.5550938341671636	0.49747397532750043	0.13219873023539655	0.6562858199991375	0.9203223258491919	0.04170523111720864	0.7439098708312295	1.2607010119228883	0.0011062518558508784	0.589020323797389	1.3033078193529355	0.06757689294559376	0.602903299030459	1.3153955011124268	0.0025683920661421617	0.8754822642475406	1.3241763382010774	0.01259736536319496	0.5675908252741246	0.45853545105364746	-0.08077458117041993	0.6734240831496662	0.8673462317468673	-0.1499385311246842	0.7693929860711715	1.233638411888991	-0.14071708287879564	0.5968759930606182	1.258873206685971	-0.19921348907109712	0.6397274926012774	1.2576226960783035	-0.14671405699328968	0.8243546271895006	1.2837229426266403	0.2492314540700567	0.4192846728609973	-0.012258423165734805	0.29903787517242547	0.31233068951804016	-0.24645465146644624	0.2638902187593304	0.27385224712289186	-0.1037756590197278	0.35934225183046886	0.4225839494706219	0.10232706867056579	0.33001292938733856	0.47651232557800227	0.36832044065923875	0.18854710030591593	0.3888656920071726	0.5293735374311132	0.06299831655722322	0.39957837906148364	0.5962826713683352	0.05599252217382042	0.4292470984282784	0.6058057336305767	0.07906689740520285	0.43628122034425976	0.6421078742223698	0.07911570127710137	0.4428613256116215	0.02008234788378252	-0.00141796524134373	0.4523172102520181	0.2810649520415749	0.041323268410787976	0.4122587548480507	0.5019057715409003	0.08511316979274029	0.398094681959966	0.5960575191929605	0.08190736363987859	0.40038317943274576	0.6161743741368237	0.06805928887793916	0.4333844616700241	0.6223672812774503
174	3.702127659574468	0.2190187733958607	0.5510444499098721	0.49641398442172996	0.13324615181578797	0.6563285623634086	0.9206758169527627	0.04173993888870061	0.7440451744497539	1.2607021483634795	0.0016225831345936038	0.5888605302238314	1.3023226360383724	0.06761485097781741	0.6027868716618872	1.315111997407586	0.0025506162191998535	0.8748279309052635	1.3240937438317184	0.012828983858457097	0.5674409693019263	0.45713619236491154	-0.08079826257308614	0.6735377271082768	0.8668313044398473	-0.14988849626752057	0.7692959427288992	1.2336679360100786	-0.14092260372833865	0.5928500405344057	1.2587885208883032	-0.19923091864289888	0.639709425557568	1.257792633473144	-0.14725256754516614	0.82379134729753	1.2836907466115732	0.24804013410193287	0.4227889753581159	-0.012808628050110201	0.2989935926048522	0.3117393804606826	-0.24699602550860994	0.2613494235495408	0.27699705867589985	-0.10455005030859804	0.3594645277018034	0.4226608285338517	0.10233873973937539	0.3301969475768758	0.4760474194983442	0.36825799619021704	0.18845412752669677	0.3889859023787652	0.5306477911262931	0.0660727184836108	0.4000729574615593	0.5961445585054719	0.05943990794053779	0.4201286296831014	0.6071565830898866	0.0812345380796759	0.43080790472266883	0.6415475072703694	0.07817499804368414	0.44236718283432663	0.021158513081758944	-0.0012979269317191361	0.45231862944673834	0.27998143868021674	0.03990046095433479	0.4115799771967259	0.5014842711150738	0.0850352352846548	0.3980694117208307	0.5947983764329933	0.0818904118982196	0.40040686989656216	0.6163094837974027	0.07015316697466906	0.43418499892027407	0.6229218958761134
175	3.723404255319149	0.2176975489067194	0.5450296596642082	0.4937564019997984	0.13424434270039423	0.6571744503876714	0.920721189399257	0.04173006882666385	0.7440755575003758	1.2607085236897353	0.002437529282486167	0.5887141699906275	1.3005487291118705	0.0675997587952617	0.602839228728385	1.3152785688649606	0.0025666902946018476	0.8745548693886375	1.3240736190577236	0.013475248010615535	0.5672489919318372	0.4540138058001797	-0.08091872913672199	0.6735744526150875	0.8665963560489001	-0.14981201785839027	0.7692596476435836	1.2336816364626952	-0.14108581430110131	0.5875375484056629	1.2570189333751138	-0.1992077333131667	0.6397471087449562	1.257601863036228	-0.147875757343952	0.8234047143666187	1.2832048377149354	0.24814490682864124	0.4233302995906604	-0.014190247934748726	0.2996046091518656	0.31194768953139446	-0.24892602679763282	0.2600318421852985	0.2768781146710976	-0.10486777758477568	0.35951264055490373	0.4227126311478205	0.10236151094907706	0.3304108532925279	0.475743258121587	0.3683191182707546	0.1884301021285195	0.389398924754924	0.533313792316279	0.06726625302751613	0.40047331690383725	0.5953097118484838	0.06102078555994574	0.4162151009399891	0.6087496328406815	0.08265072060472825	0.42705757653800613	0.6412852005065607	0.07799601060994113	0.4427877797835422	0.021304383239375384	-0.0011119039903320768	0.4523328972928779	0.27845912140939344	0.03943068894335191	0.41160731138606793	0.501573788496411	0.08525498148190586	0.39792231237328823	0.5931269880824381	0.08188616690272904	0.4010605114886131	0.6165962550393249	0.07026049889487793	0.4341864664147442	0.6229797308355393
176	3.74468085106383	0.21692394729522535	0.5409300790584566	0.4910700111970679	0.13563581193957633	0.6612764879622228	0.9207171995014012	0.04179075560240688	0.7434270752239914	1.26070304083797	0.0030324438714083644	0.5887426482648654	1.2992239604528442	0.06761204820337234	0.6029361192047342	1.3153625276750087	0.002572007887419097	0.8747038624253127	1.324052637203718	0.014218843610766	0.5671354997115359	0.45116054001919303	-0.08102434249332761	0.673546518969099	0.8666568853596369	-0.1497348909437048	0.7692728620295634	1.233684332729939	-0.14122877841227366	0.5860820686519018	1.2547552062604383	-0.19906480263678072	0.6398682390826362	1.25647148837731	-0.14887709364518978	0.8229475922455298	1.2828157528941744	0.24825788187839753	0.4227157651587326	-0.015325888150651017	0.2999001086416067	0.31200928908277153	-0.25081630970533264	0.2590341989226412	0.27379188222834727	-0.10459970934620308	0.35947134623937294	0.4227109989733703	0.10236600750125066	0.33060190848254445	0.4757101555104511	0.3680845769905644	0.1884463704812791	0.39011264593560474	0.5362903836136705	0.06689419439947164	0.40066671880260174	0.5950332724027783	0.06093236421686106	0.4166600861702842	0.610002480537889	0.08273492244983269	0.4262080406680544	0.6411309080659525	0.07811926482617515	0.44302349123683193	0.02114712651905626	-0.0009663612743421024	0.45233612419445335	0.2775464826552696	0.038638597473424005	0.41140094744405437	0.5012569402458988	0.08544924402949812	0.3978896193495255	0.592190268959951	0.08194406237888316	0.4015852169630218	0.6161887316623249	0.06974660695313863	0.42988740158878325	0.621927454085499
177	3.765957446808511	0.21702828498093155	0.5402933301504167	0.49010568851278147	0.13766460802498662	0.6677699665084755	0.9209406512916369	0.04198263974942645	0.7424788315153552	1.2607028609578579	0.003189824547945742	0.5889421740335512	1.2988462606288416	0.06766624567535408	0.6030109608984424	1.3153282980386016	0.002586926970778823	0.8749004762502824	1.3240284675339637	0.014596926128709347	0.5670779645921288	0.4497074339193167	-0.08100791221969175	0.6734988132641122	0.8667451940493958	-0.14970072348766172	0.7693035399214624	1.2337663880749241	-0.1413052576837723	0.5868055767715789	1.2537774915589464	-0.19886117500657097	0.6401034723402246	1.2548011223260405	-0.1498971214259952	0.8224938397763166	1.282644270786584	0.24724567915725662	0.42219093655917783	-0.015833163073328653	0.298747287878218	0.3119388809319188	-0.2509755256452237	0.2576482111716424	0.26939820976768	-0.10346871173941946	0.35942655841470544	0.4226747531917883	0.1023607339496548	0.33056326089577615	0.4757333851660603	0.3670345671613313	0.18845203568789334	0.3909087808961744	0.5385299993109558	0.0667420464207685	0.39956067566745246	0.5956541232547015	0.06078674210223608	0.4182087100081463	0.6111950595790621	0.082386501843141	0.42657049112613427	0.6410728472612369	0.07816340074760268	0.4430188181570621	0.021084807939129015	-0.0009363057665948961	0.45222057674477184	0.27747540744464805	0.0371716376361985	0.40905097422355385	0.49964495903071726	0.08530118858355526	0.39705128241237414	0.5923673397848968	0.08186827587042839	0.40038590969691723	0.6141398163619832	0.07025197014267441	0.420074622860707	0.6193603910213763
